<svg width="23" height="24" viewBox="0 0 23 24" fill="none" xmlns="http://www.w3.org/2000/svg">
<path d="M7.21903 18.6277C6.003 18.6277 5.01913 19.6226 5.01913 20.8387C5.01913 22.0547 6.003 23.0496 7.21903 23.0496C8.43505 23.0496 9.42997 22.0547 9.42997 20.8387C9.42997 19.6226 8.43505 18.6277 7.21903 18.6277ZM0.586182 2.0456C0.586182 2.65361 1.08364 3.15107 1.69166 3.15107H2.79713L6.77684 11.5416L5.28445 14.239C4.47745 15.7203 5.5387 17.5222 7.21903 17.5222H19.3792C19.9873 17.5222 20.4847 17.0248 20.4847 16.4168C20.4847 15.8087 19.9873 15.3113 19.3792 15.3113H7.21903L8.43505 13.1003H16.6708C17.4999 13.1003 18.2295 12.6471 18.6054 11.9617L22.563 4.78717C22.6562 4.61961 22.704 4.43063 22.7017 4.23892C22.6994 4.04721 22.6471 3.85943 22.5499 3.69415C22.4527 3.52887 22.3141 3.39182 22.1477 3.29657C21.9813 3.20132 21.793 3.15117 21.6012 3.15107H5.24023L4.49956 1.57025C4.41071 1.38155 4.26995 1.22207 4.09375 1.11047C3.91755 0.998878 3.7132 0.93979 3.50463 0.940126H1.69166C1.08364 0.940126 0.586182 1.43759 0.586182 2.0456ZM18.2738 18.6277C17.0577 18.6277 16.0739 19.6226 16.0739 20.8387C16.0739 22.0547 17.0577 23.0496 18.2738 23.0496C19.4898 23.0496 20.4847 22.0547 20.4847 20.8387C20.4847 19.6226 19.4898 18.6277 18.2738 18.6277Z" fill="white"/>
</svg>
