<svg width="28" height="24" viewBox="0 0 28 24" fill="none" xmlns="http://www.w3.org/2000/svg">
<path d="M27.1049 0.940125H22.2684L24.6728 4.54673C24.8248 4.78165 24.659 5.08565 24.3826 5.08565H21.6189C21.1629 5.08565 20.7208 4.85074 20.472 4.46382L18.1229 0.940125H15.3592L17.7636 4.54673C17.9156 4.78165 17.7498 5.08565 17.4734 5.08565H14.7097C14.2537 5.08565 13.8115 4.85074 13.5628 4.46382L11.2137 0.940125H8.44999L10.8544 4.54673C11.0064 4.78165 10.8406 5.08565 10.5642 5.08565H7.80052C7.34452 5.08565 6.91614 4.85074 6.65359 4.46382L4.30446 0.940125H2.92262C1.40259 0.940125 0.172754 2.18378 0.172754 3.70381L0.158936 20.2859C0.158936 21.8059 1.40259 23.0496 2.92262 23.0496H25.0321C26.5521 23.0496 27.7958 21.8059 27.7958 20.2859V1.63105C27.7958 1.24413 27.4918 0.940125 27.1049 0.940125ZM12.941 16.4859L11.2137 20.2859L9.48637 16.4859L5.68631 14.7585L9.48637 13.0312L11.2137 9.23118L12.941 13.0312L16.741 14.7585L12.941 16.4859ZM20.8037 11.912L19.5047 14.7585L18.2058 11.912L15.3592 10.613L18.2058 9.31409L19.5047 6.46749L20.8037 9.31409L23.6503 10.613L20.8037 11.912Z" fill="white"/>
</svg>
