<svg width="121" height="120" viewBox="0 0 121 120" fill="none" xmlns="http://www.w3.org/2000/svg">
<circle cx="59.7148" cy="60" r="50" fill="#FCD280"/>
<g filter="url(#filter0_d_183_45017)">
<circle cx="60.7148" cy="60" r="40" fill="url(#paint0_linear_183_45017)"/>
</g>
<path d="M73.0479 60L73.755 59.2929L74.4621 60L73.755 60.7071L73.0479 60ZM48.0479 61C47.4956 61 47.0479 60.5523 47.0479 60C47.0479 59.4477 47.4956 59 48.0479 59V61ZM63.755 49.2929L73.755 59.2929L72.3407 60.7071L62.3407 50.7071L63.755 49.2929ZM73.755 60.7071L63.755 70.7071L62.3407 69.2929L72.3407 59.2929L73.755 60.7071ZM73.0479 61H48.0479V59H73.0479V61Z" fill="black"/>
<defs>
<filter id="filter0_d_183_45017" x="0.714844" y="0" width="120" height="120" filterUnits="userSpaceOnUse" color-interpolation-filters="sRGB">
<feFlood flood-opacity="0" result="BackgroundImageFix"/>
<feColorMatrix in="SourceAlpha" type="matrix" values="0 0 0 0 0 0 0 0 0 0 0 0 0 0 0 0 0 0 127 0" result="hardAlpha"/>
<feOffset/>
<feGaussianBlur stdDeviation="10"/>
<feComposite in2="hardAlpha" operator="out"/>
<feColorMatrix type="matrix" values="0 0 0 0 0 0 0 0 0 0 0 0 0 0 0 0 0 0 0.25 0"/>
<feBlend mode="normal" in2="BackgroundImageFix" result="effect1_dropShadow_183_45017"/>
<feBlend mode="normal" in="SourceGraphic" in2="effect1_dropShadow_183_45017" result="shape"/>
</filter>
<linearGradient id="paint0_linear_183_45017" x1="86.2148" y1="47.5" x2="29.2148" y2="80.5" gradientUnits="userSpaceOnUse">
<stop stop-color="#FAA500"/>
<stop offset="1" stop-color="#FFD600"/>
</linearGradient>
</defs>
</svg>
