<svg width="41" height="40" viewBox="0 0 41 40" fill="none" xmlns="http://www.w3.org/2000/svg">
<path d="M24.5485 5V4.5H24.0485H17.3818H16.8818V5V5.66667C16.8818 5.67574 16.8818 5.68481 16.8818 5.69387C16.8818 5.90591 16.8818 6.11197 16.9046 6.28193C16.9304 6.47353 16.9931 6.69217 17.1747 6.87377C17.3563 7.05538 17.575 7.11814 17.7666 7.1439C17.9365 7.16675 18.1426 7.16671 18.3546 7.16667C18.3637 7.16667 18.3728 7.16667 18.3818 7.16667H23.0485C23.0576 7.16667 23.0666 7.16667 23.0757 7.16667C23.2877 7.16671 23.4938 7.16675 23.6638 7.1439C23.8554 7.11814 24.074 7.05538 24.2556 6.87377C24.4372 6.69217 24.5 6.47353 24.5257 6.28193C24.5486 6.11197 24.5485 5.90591 24.5485 5.69387C24.5485 5.68481 24.5485 5.67574 24.5485 5.66667V5Z" stroke="#222222"/>
<rect x="11.2148" y="3.83333" width="19" height="32.3333" rx="1.5" stroke="#222222"/>
<circle cx="20.7145" cy="30" r="1.66667" fill="#222222"/>
</svg>
