<svg width="25" height="24" viewBox="0 0 25 24" fill="none" xmlns="http://www.w3.org/2000/svg">
<path fill-rule="evenodd" clip-rule="evenodd" d="M21.7148 14C21.7148 18.9706 17.6854 23 12.7148 23C7.74428 23 3.71484 18.9706 3.71484 14C3.71484 9.02944 7.74428 5 12.7148 5C17.6854 5 21.7148 9.02944 21.7148 14ZM12.7148 19C15.4763 19 17.7148 16.7614 17.7148 14C17.7148 11.2386 15.4763 9 12.7148 9C9.95342 9 7.71484 11.2386 7.71484 14C7.71484 16.7614 9.95342 19 12.7148 19ZM12.7148 21C16.5808 21 19.7148 17.866 19.7148 14C19.7148 10.134 16.5808 7 12.7148 7C8.84885 7 5.71484 10.134 5.71484 14C5.71484 17.866 8.84885 21 12.7148 21ZM13.7148 11C13.7148 10.4477 13.2671 10 12.7148 10C12.1626 10 11.7148 10.4477 11.7148 11V14C11.7148 14.5523 12.1626 15 12.7148 15C13.2671 15 13.7148 14.5523 13.7148 14V11Z" fill="#222222"/>
<path d="M18.2148 7.5L19.7148 6" stroke="#222222" stroke-width="2" stroke-linecap="round"/>
<path d="M10.783 2.37059C10.8969 2.26427 11.148 2.17033 11.4973 2.10332C11.8466 2.03632 12.2746 2 12.7148 2C13.1551 2 13.5831 2.03632 13.9324 2.10332C14.2817 2.17033 14.5327 2.26427 14.6467 2.37059" stroke="#222222" stroke-width="2" stroke-linecap="round"/>
</svg>
