<svg xmlns="http://www.w3.org/2000/svg" xmlns:xlink="http://www.w3.org/1999/xlink" width="235" height="79" fill="none" xmlns:v="https://vecta.io/nano">
    <defs>
        <linearGradient id="A" x1="56.281" y1="39.408" x2="234.312" y2="39.408" xlink:href="#G">
            <stop stop-color="#faa500" />
            <stop offset="1" stop-color="#ffd600" />
        </linearGradient>
        <linearGradient id="B" x1="38.469" y1="39.408" x2="216.5" y2="39.408" xlink:href="#G">
            <stop stop-color="#faa500" />
            <stop offset="1" stop-color="#ffd600" />
        </linearGradient>
        <linearGradient id="C" x1="23" y1="8.578" x2="23" y2="54.578" xlink:href="#G">
            <stop stop-color="#faa500" />
            <stop offset="1" stop-color="#ffd600" />
        </linearGradient>
        <linearGradient id="D" x1="23" y1="0" x2="23" y2="54.579" xlink:href="#G">
            <stop stop-color="#faa500" />
            <stop offset="1" stop-color="#ffd600" />
        </linearGradient>
        <linearGradient id="E" x1="23" y1="32.931" x2="23" y2="78.931" xlink:href="#G">
            <stop stop-color="#faa500" />
            <stop offset="1" stop-color="#ffd600" />
        </linearGradient>
        <path id="F" d="M207.222 42.192v5.082h9.549v4.273h-14.016V28.888h13.854v4.273h-9.387v4.823h8.578v4.208h-8.578z" />
        <linearGradient id="G" gradientUnits="userSpaceOnUse" />
    </defs>
    <path
        d="M67.912 39.376h11.362v1.748c0 3.237-1.036 5.859-3.107 7.866S71.419 52 68.139 52c-3.496 0-6.398-1.133-8.707-3.399C57.144 46.314 56 43.53 56 40.25c0-3.302 1.133-6.096 3.399-8.384 2.287-2.287 5.114-3.431 8.481-3.431 2.093 0 4.014.475 5.762 1.424s3.118 2.233 4.111 3.852l-3.82 2.201c-.54-.928-1.359-1.683-2.46-2.266s-2.309-.874-3.625-.874c-2.18 0-3.96.712-5.341 2.136-1.381 1.381-2.072 3.161-2.072 5.341 0 2.136.701 3.906 2.104 5.309 1.403 1.381 3.28 2.072 5.632 2.072 1.705 0 3.129-.378 4.273-1.133s1.921-1.813 2.331-3.172h-6.862v-3.949z"
        fill="url(#A)" />
    <path
        d="M100.351 51.547h-4.823l-4.564-7.866h-3.399v7.866h-4.467V28.888h9.063c2.093 0 3.874.734 5.341 2.201a7.23 7.23 0 0 1 2.201 5.309c0 1.403-.399 2.708-1.198 3.917-.798 1.187-1.856 2.083-3.172 2.687l5.017 8.545zm-8.189-18.483h-4.596v6.701h4.596c.842 0 1.565-.324 2.169-.971a3.45 3.45 0 0 0 .906-2.395c0-.928-.302-1.716-.906-2.363s-1.327-.971-2.169-.971z"
        fill="url(#A)" />
    <path
        d="M122.442 48.601C120.154 50.867 117.37 52 114.09 52s-6.064-1.133-8.351-3.399c-2.266-2.309-3.399-5.104-3.399-8.384 0-3.302 1.133-6.085 3.399-8.351 2.287-2.287 5.071-3.431 8.351-3.431s6.064 1.144 8.352 3.431c2.287 2.266 3.431 5.05 3.431 8.351s-1.144 6.096-3.431 8.384zm-13.563-3.043c1.381 1.381 3.118 2.072 5.211 2.072s3.831-.691 5.212-2.072c1.402-1.403 2.104-3.183 2.104-5.341s-.702-3.938-2.104-5.341-3.14-2.104-5.212-2.104-3.809.701-5.211 2.104-2.104 3.183-2.104 5.341.701 3.938 2.104 5.341z"
        fill="url(#A)" />
    <path
        d="M148.725 48.601c-2.287 2.266-5.071 3.399-8.351 3.399s-6.064-1.133-8.351-3.399c-2.266-2.309-3.399-5.104-3.399-8.384 0-3.302 1.133-6.085 3.399-8.351 2.287-2.287 5.071-3.431 8.351-3.431s6.064 1.144 8.351 3.431c2.288 2.266 3.431 5.05 3.431 8.351s-1.143 6.096-3.431 8.384zm-13.562-3.043c1.381 1.381 3.118 2.072 5.211 2.072s3.83-.691 5.211-2.072c1.403-1.403 2.104-3.183 2.104-5.341s-.701-3.938-2.104-5.341-3.139-2.104-5.211-2.104-3.809.701-5.211 2.104-2.105 3.183-2.105 5.341.702 3.938 2.105 5.341z"
        fill="url(#A)" />
    <path d="M168.182 51.547h-5.997L153.945 27h5.26l5.996 18.866L171.162 27h5.296l-8.276 24.547z" fill="url(#A)" />
    <path d="M191.588 51.547h-5.997L177.35 27h5.26l5.997 18.866L194.568 27h5.295l-8.275 24.547z" fill="url(#A)" />
    <use xlink:href="#F" fill="url(#A)" />
    <use xlink:href="#F" x="17.812" fill="url(#B)" />
    <g stroke-width="8.118">
        <path
            d="M41.9412 31.5778C41.9412 42.0387 33.4609 50.5189 23 50.5189C12.5391 50.5189 4.05882 42.0387 4.05882 31.5778C4.05882 21.1168 12.5391 12.6366 23 12.6366C25.9333 12.6366 28.7002 13.3005 31.1685 14.4826C32.2148 14.9836 33.2087 15.5784 34.1394 16.2564C34.9491 16.8463 35.7106 17.4991 36.4166 18.2075L39.2473 15.3866L36.4166 18.2075C39.8351 21.6378 41.9412 26.3579 41.9412 31.5778Z"
            stroke="url(#C)" />
        <path
            d="M35.1927 14.395C35.1728 14.581 35.1592 14.7787 35.157 14.9821C35.1542 15.2479 35.1681 15.6667 35.2811 16.1488C35.3861 16.597 35.6563 17.4461 36.4166 18.209C39.8351 21.6392 41.9412 26.3594 41.9412 31.5792C41.9412 42.0401 33.4609 50.5204 23 50.5204C12.5391 50.5204 4.05882 42.0401 4.05882 31.5792C4.05882 21.1183 12.5391 12.638 23 12.638C25.9333 12.638 28.7002 13.302 31.1685 14.484C32.6652 15.2007 34.0299 14.8236 34.4859 14.6775C34.7432 14.5951 34.9806 14.4964 35.1927 14.395Z"
            stroke="url(#D)" />
    </g>
    <mask id="H" fill="#fff">
        <path
            d="M46 55.931a23 23 0 0 1-6.736 16.263A23 23 0 0 1 23 78.931a23 23 0 0 1-16.263-6.737 23 23 0 0 1-4.986-7.462A23 23 0 0 1 0 55.931h8.04a14.96 14.96 0 0 0 4.382 10.578A14.96 14.96 0 0 0 23 70.89a14.96 14.96 0 0 0 10.578-4.382 14.96 14.96 0 0 0 4.382-10.578H46z" />
    </mask>
    <path
        d="M46 55.9307C46 58.9511 45.4051 61.9419 44.2492 64.7324C43.0934 67.5229 41.3992 70.0584 39.2635 72.1941C37.1277 74.3299 34.5922 76.024 31.8017 77.1799C29.0112 78.3358 26.0204 78.9307 23 78.9307C19.9796 78.9307 16.9888 78.3358 14.1983 77.1799C11.4078 76.024 8.87229 74.3299 6.73654 72.1941C4.6008 70.0584 2.90663 67.5229 1.75077 64.7324C0.594912 61.9419 -2.64052e-07 58.9511 0 55.9307H8.04041C8.04041 57.8952 8.42735 59.8405 9.17914 61.6555C9.93093 63.4704 11.0328 65.1196 12.422 66.5087C13.8111 67.8978 15.4602 68.9997 17.2752 69.7515C19.0902 70.5033 21.0355 70.8903 23 70.8903C24.9645 70.8903 26.9098 70.5033 28.7248 69.7515C30.5398 68.9997 32.1889 67.8978 33.578 66.5087C34.9672 65.1196 36.0691 63.4704 36.8209 61.6555C37.5726 59.8405 37.9596 57.8952 37.9596 55.9307H46Z"
        stroke="url(#E)" stroke-width="16.235" mask="url(#H)" />
</svg>