<svg xmlns="http://www.w3.org/2000/svg" width="235" height="79" fill="none" xmlns:v="https://vecta.io/nano">
    <g stroke="#252525" stroke-width="8.125">
        <path d="M41.978 31.605c0 10.47-8.488 18.958-18.958 18.958S4.062 42.075 4.062 31.605 12.55 12.648 23.02 12.648c2.936 0 5.705.664 8.176 1.848a18.94 18.94 0 0 1 2.974 1.775 19.08 19.08 0 0 1 2.279 1.953c3.422 3.433 5.529 8.158 5.529 13.382z" />
        <path
            d="M35.224 14.408l-.036.588a4.89 4.89 0 0 0 .124 1.168c.105.449.376 1.298 1.136 2.062 3.422 3.433 5.529 8.157 5.529 13.382 0 10.47-8.488 18.958-18.958 18.958S4.062 42.077 4.062 31.607 12.55 12.649 23.02 12.649c2.936 0 5.705.665 8.176 1.848 1.498.717 2.864.34 3.32.194.258-.082.495-.181.707-.283z" />
    </g>
    <mask id="A" fill="#fff">
        <path
            d="M46.04 55.98a23.02 23.02 0 0 1-6.742 16.278A23.02 23.02 0 0 1 23.02 79a23.02 23.02 0 0 1-16.278-6.742A23.02 23.02 0 0 1 0 55.98h8.047c0 1.966.387 3.913 1.14 5.73a14.97 14.97 0 0 0 3.246 4.858c1.39 1.39 3.041 2.493 4.858 3.246s3.764 1.14 5.73 1.14 3.913-.387 5.73-1.14 3.467-1.855 4.858-3.246a14.97 14.97 0 0 0 4.386-10.587h8.047z" />
    </mask>
    <path
        d="M46.04 55.98a23.02 23.02 0 0 1-6.742 16.278A23.02 23.02 0 0 1 23.02 79a23.02 23.02 0 0 1-16.278-6.742A23.02 23.02 0 0 1 0 55.98h8.047c0 1.966.387 3.913 1.14 5.73a14.97 14.97 0 0 0 3.246 4.858c1.39 1.39 3.041 2.493 4.858 3.246s3.764 1.14 5.73 1.14 3.913-.387 5.73-1.14 3.467-1.855 4.858-3.246a14.97 14.97 0 0 0 4.386-10.587h8.047z"
        stroke="#252525" stroke-width="12.639" mask="url(#A)" />
    <path
        d="M67.953 39.376h11.362v1.748c0 3.237-1.036 5.859-3.108 7.866S71.459 52 68.179 52c-3.496 0-6.398-1.133-8.707-3.399-2.288-2.287-3.431-5.071-3.431-8.351 0-3.302 1.133-6.096 3.399-8.384 2.287-2.287 5.114-3.431 8.481-3.431 2.093 0 4.014.475 5.762 1.424s3.118 2.233 4.111 3.852l-3.82 2.201c-.54-.928-1.36-1.683-2.46-2.266s-2.309-.874-3.625-.874c-2.179 0-3.96.712-5.341 2.136-1.381 1.381-2.072 3.161-2.072 5.341 0 2.136.701 3.906 2.104 5.309 1.403 1.381 3.28 2.072 5.632 2.072 1.705 0 3.129-.378 4.273-1.133s1.921-1.813 2.331-3.172h-6.862v-3.949zm32.439 12.171h-4.823l-4.564-7.866h-3.399v7.866h-4.467V28.888h9.063a7.27 7.27 0 0 1 5.341 2.201 7.23 7.23 0 0 1 2.201 5.309c0 1.403-.399 2.708-1.198 3.917a7.54 7.54 0 0 1-3.172 2.687l5.017 8.545zm-8.19-18.483h-4.596v6.701h4.596c.842 0 1.565-.324 2.169-.971a3.45 3.45 0 0 0 .906-2.395c0-.928-.302-1.716-.906-2.363s-1.327-.971-2.169-.971zm30.28 15.537c-2.287 2.266-5.071 3.399-8.351 3.399s-6.064-1.133-8.352-3.399c-2.265-2.309-3.398-5.104-3.398-8.384 0-3.302 1.133-6.085 3.398-8.351 2.288-2.287 5.072-3.431 8.352-3.431s6.064 1.144 8.351 3.431c2.288 2.266 3.431 5.05 3.431 8.351s-1.143 6.096-3.431 8.384zm-13.563-3.043c1.381 1.381 3.119 2.072 5.212 2.072s3.83-.691 5.211-2.072c1.403-1.403 2.104-3.183 2.104-5.341s-.701-3.938-2.104-5.341-3.14-2.104-5.211-2.104-3.809.701-5.212 2.104-2.104 3.183-2.104 5.341.702 3.938 2.104 5.341zm39.847 3.043c-2.288 2.266-5.071 3.399-8.351 3.399s-6.064-1.133-8.352-3.399c-2.266-2.309-3.399-5.104-3.399-8.384 0-3.302 1.133-6.085 3.399-8.351 2.288-2.287 5.071-3.431 8.352-3.431s6.063 1.144 8.351 3.431c2.287 2.266 3.431 5.05 3.431 8.351s-1.144 6.096-3.431 8.384zm-13.563-3.043c1.381 1.381 3.118 2.072 5.212 2.072s3.83-.691 5.211-2.072c1.403-1.403 2.104-3.183 2.104-5.341s-.701-3.938-2.104-5.341-3.14-2.104-5.211-2.104-3.809.701-5.212 2.104-2.104 3.183-2.104 5.341.701 3.938 2.104 5.341zm33.019 5.989h-5.996L153.985 27h5.26l5.997 18.866L171.203 27h5.295l-8.276 24.547zm23.406 0h-5.996L177.391 27h5.26l5.996 18.866L194.609 27h5.295l-8.276 24.547zm15.635-9.355v5.082h9.548v4.273h-14.015V28.888h13.854v4.273h-9.387v4.823h8.577v4.208h-8.577zm17.812 0v5.082h9.549v4.273h-14.016V28.888h13.854v4.273h-9.387v4.823h8.577v4.208h-8.577z"
        fill="#252525" />
</svg>