<svg width="20" height="23" viewBox="0 0 20 23" fill="none" xmlns="http://www.w3.org/2000/svg">
    <path
        d="M19.3179 15.8784C19.236 15.7797 19.1555 15.681 19.0765 15.5858C17.9902 14.2725 17.3331 13.48 17.3331 9.76231C17.3331 7.8376 16.8724 6.25835 15.9644 5.07392C15.2949 4.19891 14.3898 3.53514 13.197 3.04458C13.1816 3.03605 13.1679 3.02485 13.1565 3.01152C12.7274 1.57539 11.5533 0.613525 10.229 0.613525C8.90482 0.613525 7.73118 1.57539 7.30212 3.01003C7.29067 3.02288 7.27715 3.03372 7.26213 3.04211C4.47838 4.18756 3.12552 6.38519 3.12552 9.76083C3.12552 13.48 2.46933 14.2725 1.3821 15.5843C1.3031 15.6796 1.22262 15.7763 1.14066 15.877C0.928939 16.1322 0.794798 16.4427 0.75411 16.7717C0.713421 17.1007 0.767888 17.4345 0.911065 17.7336C1.21571 18.3751 1.86498 18.7734 2.6061 18.7734H17.8574C18.5951 18.7734 19.2399 18.3756 19.5455 17.737C19.6893 17.4379 19.7443 17.1038 19.704 16.7744C19.6636 16.445 19.5297 16.1341 19.3179 15.8784V15.8784ZM10.229 22.723C10.9425 22.7224 11.6426 22.5288 12.2549 22.1628C12.8672 21.7967 13.369 21.2719 13.707 20.6438C13.7229 20.6137 13.7308 20.58 13.7298 20.546C13.7289 20.512 13.7191 20.4787 13.7015 20.4496C13.6839 20.4204 13.6591 20.3963 13.6294 20.3796C13.5998 20.3629 13.5663 20.3541 13.5322 20.3541H6.92687C6.89277 20.354 6.85921 20.3627 6.82947 20.3794C6.79974 20.3961 6.77483 20.4202 6.75718 20.4494C6.73953 20.4786 6.72974 20.5118 6.72876 20.5459C6.72778 20.5799 6.73565 20.6137 6.75159 20.6438C7.08958 21.2718 7.59128 21.7966 8.20351 22.1627C8.81573 22.5287 9.51565 22.7223 10.229 22.723Z"
        fill="white" />
</svg>