<svg width="90" height="95" viewBox="0 0 90 95" fill="none" xmlns="http://www.w3.org/2000/svg">
<circle cx="45" cy="44.7838" r="38.4513" fill="url(#paint0_radial_66_6880)"/>
<circle cx="45" cy="44.7839" r="43.2577" stroke="url(#paint1_linear_66_6880)" stroke-width="1.92256"/>
<rect x="6.54874" y="72.6611" width="76.9025" height="21.9722" rx="10.9861" fill="url(#paint2_linear_66_6880)"/>
<path d="M32.834 86.8377H36.3716V88.5449H30.6808V77.8093H32.834V86.8377ZM38.8322 79.009C38.4528 79.009 38.1349 78.8911 37.8786 78.6553C37.6325 78.4092 37.5095 78.1067 37.5095 77.7478C37.5095 77.3889 37.6325 77.0916 37.8786 76.8557C38.1349 76.6096 38.4528 76.4866 38.8322 76.4866C39.2116 76.4866 39.5243 76.6096 39.7704 76.8557C40.0267 77.0916 40.1549 77.3889 40.1549 77.7478C40.1549 78.1067 40.0267 78.4092 39.7704 78.6553C39.5243 78.8911 39.2116 79.009 38.8322 79.009ZM39.8934 80.0241V88.5449H37.7402V80.0241H39.8934ZM45.5738 86.5608L47.7271 80.0241H50.0187L46.8657 88.5449H44.2511L41.1134 80.0241H43.4205L45.5738 86.5608ZM59.1491 84.1C59.1491 84.4076 59.1286 84.6844 59.0876 84.9305H52.8585C52.9098 85.5457 53.1251 86.0276 53.5045 86.3763C53.8839 86.7249 54.3504 86.8992 54.9041 86.8992C55.7039 86.8992 56.273 86.5557 56.6113 85.8687H58.9338C58.6877 86.689 58.216 87.3657 57.5188 87.8989C56.8215 88.4219 55.9654 88.6833 54.9502 88.6833C54.1299 88.6833 53.3917 88.5039 52.7354 88.145C52.0895 87.7759 51.5819 87.2581 51.2128 86.5916C50.8539 85.9251 50.6745 85.1561 50.6745 84.2845C50.6745 83.4027 50.8539 82.6286 51.2128 81.9621C51.5717 81.2956 52.0741 80.7829 52.7201 80.424C53.3661 80.0651 54.1094 79.8857 54.9502 79.8857C55.7603 79.8857 56.4832 80.06 57.1189 80.4086C57.7649 80.7573 58.2622 81.2546 58.6108 81.9005C58.9697 82.5363 59.1491 83.2694 59.1491 84.1ZM56.9189 83.4847C56.9087 82.931 56.7087 82.4901 56.3191 82.162C55.9295 81.8236 55.4527 81.6545 54.8887 81.6545C54.3555 81.6545 53.9044 81.8185 53.5352 82.1466C53.1764 82.4645 52.9559 82.9105 52.8739 83.4847H56.9189Z" fill="#252525"/>
<path d="M38.0403 40.3919C37.5481 39.4896 36.8714 38.8026 36.0101 38.331C35.1488 37.8593 34.1439 37.6235 32.9955 37.6235C31.7241 37.6235 30.5962 37.9106 29.6118 38.4848C28.6275 39.059 27.8584 39.8793 27.3047 40.9456C26.751 42.012 26.4742 43.2425 26.4742 44.637C26.4742 46.0725 26.751 47.3234 27.3047 48.3898C27.8789 49.4562 28.6685 50.2765 29.6733 50.8507C30.6782 51.4249 31.8471 51.712 33.1801 51.712C34.8207 51.712 36.1639 51.2813 37.2098 50.42C38.2556 49.5382 38.9426 48.318 39.2708 46.7595H31.8881V43.468H43.5158V47.2209C43.2287 48.7179 42.6135 50.1022 41.6701 51.3736C40.7268 52.6451 39.5066 53.6704 38.0096 54.4497C36.533 55.2085 34.8719 55.5879 33.0263 55.5879C30.955 55.5879 29.0786 55.1265 27.397 54.2036C25.7359 53.2603 24.4234 51.9581 23.4596 50.297C22.5163 48.6359 22.0446 46.7492 22.0446 44.637C22.0446 42.5247 22.5163 40.638 23.4596 38.9769C24.4234 37.2953 25.7359 35.9931 27.397 35.0703C29.0786 34.1269 30.9448 33.6553 32.9955 33.6553C35.4154 33.6553 37.5174 34.25 39.3015 35.4394C41.0857 36.6083 42.3161 38.2592 42.9928 40.3919H38.0403ZM56.6685 55.6186C54.6588 55.6186 52.8131 55.147 51.1315 54.2036C49.4499 53.2603 48.117 51.9581 47.1326 50.297C46.1483 48.6154 45.6561 46.7185 45.6561 44.6062C45.6561 42.5145 46.1483 40.638 47.1326 38.9769C48.117 37.2953 49.4499 35.9829 51.1315 35.0395C52.8131 34.0962 54.6588 33.6245 56.6685 33.6245C58.6987 33.6245 60.5444 34.0962 62.2055 35.0395C63.8871 35.9829 65.2098 37.2953 66.1737 38.9769C67.158 40.638 67.6502 42.5145 67.6502 44.6062C67.6502 46.7185 67.158 48.6154 66.1737 50.297C65.2098 51.9581 63.8871 53.2603 62.2055 54.2036C60.5239 55.147 58.6782 55.6186 56.6685 55.6186ZM56.6685 51.7735C57.9605 51.7735 59.0986 51.4864 60.083 50.9122C61.0673 50.3175 61.8364 49.4767 62.3901 48.3898C62.9438 47.3029 63.2206 46.0417 63.2206 44.6062C63.2206 43.1707 62.9438 41.9197 62.3901 40.8534C61.8364 39.7665 61.0673 38.9359 60.083 38.3617C59.0986 37.7875 57.9605 37.5004 56.6685 37.5004C55.3766 37.5004 54.2281 37.7875 53.2233 38.3617C52.2389 38.9359 51.4699 39.7665 50.9162 40.8534C50.3625 41.9197 50.0857 43.1707 50.0857 44.6062C50.0857 46.0417 50.3625 47.3029 50.9162 48.3898C51.4699 49.4767 52.2389 50.3175 53.2233 50.9122C54.2281 51.4864 55.3766 51.7735 56.6685 51.7735Z" fill="#252525"/>
<defs>
<radialGradient id="paint0_radial_66_6880" cx="0" cy="0" r="1" gradientUnits="userSpaceOnUse" gradientTransform="translate(30.5808 25.5582) rotate(75.9638) scale(59.452)">
<stop stop-color="#FFD600"/>
<stop offset="1" stop-color="#FAA500"/>
</radialGradient>
<linearGradient id="paint1_linear_66_6880" x1="45" y1="0.564941" x2="45" y2="89.0029" gradientUnits="userSpaceOnUse">
<stop stop-color="#FAA500"/>
<stop offset="1" stop-color="#FFD600"/>
</linearGradient>
<linearGradient id="paint2_linear_66_6880" x1="45" y1="72.6611" x2="45" y2="94.6333" gradientUnits="userSpaceOnUse">
<stop stop-color="#FAA500"/>
<stop offset="1" stop-color="#FFD600"/>
</linearGradient>
</defs>
</svg>
