<svg xmlns="http://www.w3.org/2000/svg" width="23" height="24" fill="none" xmlns:v="https://vecta.io/nano">
    <path fill-rule="evenodd"
        d="M14.093 1.707l7.369 5.727a3.68 3.68 0 0 1 1.423 2.906v9.94a2.76 2.76 0 0 1-.809 1.952c-.518.518-1.221.809-1.954.809H3.539c-.733 0-1.436-.291-1.954-.809a2.76 2.76 0 0 1-.809-1.952v-9.94c0-.561.128-1.114.374-1.618a3.68 3.68 0 0 1 1.048-1.289l7.371-5.727c.647-.503 1.443-.776 2.262-.776s1.615.273 2.262.776zm3.72 15.234a.96.96 0 1 0-.992-1.647c-1.343.809-3.162 1.242-5.032 1.242s-3.688-.433-5.03-1.242a.96.96 0 1 0-.993 1.646c1.709 1.031 3.892 1.518 6.023 1.518s4.314-.487 6.025-1.518z"
        fill="#fff" />
</svg>