<svg xmlns="http://www.w3.org/2000/svg" viewBox="-60.5 75 132 108" xmlns:v="https://vecta.io/nano">
    <defs>
        <filter id="A" filterUnits="userSpaceOnUse" x="-25" y="119" width="61.1" height="38.5">
            <feColorMatrix values="1 0 0 0 0  0 1 0 0 0  0 0 1 0 0  0 0 0 1 0" />
        </filter>
    </defs>
    <linearGradient id="B" gradientUnits="userSpaceOnUse" x1="-59.25" y1="168.949" x2="70.257" y2="168.949">
        <stop offset="0" stop-color="#faa500" />
        <stop offset="1" stop-color="#ffd600" />
    </linearGradient>
    <g fill="url(#B)">
        <path
            d="M-50.8 168.3h8.3v1.3c0 2.4-.8 4.3-2.3 5.7-1.5 1.5-3.5 2.2-5.8 2.2-2.5 0-4.7-.8-6.3-2.5-1.7-1.7-2.5-3.7-2.5-6.1s.8-4.4 2.5-6.1 3.7-2.5 6.2-2.5c1.5 0 2.9.3 4.2 1s2.3 1.6 3 2.8l-2.8 1.6c-.4-.7-1-1.2-1.8-1.6s-1.7-.6-2.6-.6c-1.6 0-2.9.5-3.9 1.6-1 1-1.5 2.3-1.5 3.9s.5 2.8 1.5 3.9c1 1 2.4 1.5 4.1 1.5 1.2 0 2.3-.3 3.1-.8s1.4-1.3 1.7-2.3h-5v-3z" />
        <path
            d="M-27.2 177.2h-3.5l-3.3-5.7h-2.5v5.7h-3.2v-16.5h6.6a5.28 5.28 0 0 1 3.9 1.6 5.28 5.28 0 0 1 1.6 3.9c0 1-.3 2-.9 2.8-.6.9-1.4 1.5-2.3 2l3.6 6.2zm-5.9-13.5h-3.3v4.9h3.3c.6 0 1.1-.2 1.6-.7.4-.5.7-1.1.7-1.7a2.19 2.19 0 0 0-.7-1.7c-.5-.5-1-.8-1.6-.8z" />
        <path
            d="M-11.1 175c-1.7 1.6-3.7 2.5-6.1 2.5s-4.4-.8-6.1-2.5c-1.6-1.7-2.5-3.7-2.5-6.1s.8-4.4 2.5-6.1 3.7-2.5 6.1-2.5 4.4.8 6.1 2.5c1.7 1.6 2.5 3.7 2.5 6.1 0 2.5-.9 4.5-2.5 6.1zm-9.9-2.2c1 1 2.3 1.5 3.8 1.5s2.8-.5 3.8-1.5 1.5-2.3 1.5-3.9-.5-2.9-1.5-3.9-2.3-1.5-3.8-1.5-2.8.5-3.8 1.5-1.5 2.3-1.5 3.9.5 2.9 1.5 3.9z" />
        <path
            d="M8 175c-1.7 1.6-3.7 2.5-6.1 2.5s-4.4-.8-6.1-2.5c-1.6-1.7-2.5-3.7-2.5-6.1s.8-4.4 2.5-6.1 3.7-2.5 6.1-2.5 4.4.8 6.1 2.5c1.7 1.6 2.5 3.7 2.5 6.1 0 2.5-.8 4.5-2.5 6.1zm-9.9-2.2c1 1 2.3 1.5 3.8 1.5s2.8-.5 3.8-1.5 1.5-2.3 1.5-3.9-.5-2.9-1.5-3.9-2.3-1.5-3.8-1.5-2.8.5-3.8 1.5-1.5 2.3-1.5 3.9.5 2.9 1.5 3.9z" />
    </g>
    <linearGradient id="C" gradientUnits="userSpaceOnUse" x1="-59.25" y1="168.262" x2="70.257" y2="168.262">
        <stop offset="0" stop-color="#faa500" />
        <stop offset="1" stop-color="#ffd600" />
    </linearGradient>
    <g fill="url(#C)">
        <path d="M22.2 177.2h-4.4l-6-17.9h3.8L20 173l4.3-13.7h3.9l-6 17.9z" />
        <path d="M39.2 177.2h-4.4l-6-17.9h3.8L37 173l4.3-13.7h3.9l-6 17.9z" />
    </g>
    <g fill="url(#B)">
        <path d="M50.6,170.4v3.7h6.9v3.1H47.3v-16.5h10.1v3.1h-6.8v3.5h6.2v3.1H50.6z" />
        <path d="M63.5,170.4v3.7h6.9v3.1H60.3v-16.5h10.1v3.1h-6.8v3.5h6.2v3.1H63.5z" />
    </g>
    <linearGradient id="D" gradientUnits="userSpaceOnUse" x1="5.503" y1="80.498" x2="5.503" y2="125.629">
        <stop offset="0" stop-color="#faa500" />
        <stop offset="1" stop-color="#ffd600" />
    </linearGradient>
    <path d="M24.1,103.1c0,10.3-8.3,18.6-18.6,18.6s-18.6-8.3-18.6-18.6c0-10.3,8.3-18.6,18.6-18.6c2.9,0,5.6,0.7,8,1.8    c1,0.5,2,1.1,2.9,1.7c0.8,0.6,1.5,1.2,2.2,1.9l2.8-2.8l-2.8,2.8C22,93.3,24.1,97.9,24.1,103.1z" fill="none" stroke="url(#D)"
        stroke-width="7.964" />
    <linearGradient id="E" gradientUnits="userSpaceOnUse" x1="5.503" y1="72.082" x2="5.503" y2="125.631">
        <stop offset="0" stop-color="#faa500" />
        <stop offset="1" stop-color="#ffd600" />
    </linearGradient>
    <path d="M17.5,86.2c0,0.2,0,0.4,0,0.6c0,0.3,0,0.7,0.1,1.1c0.1,0.4,0.4,1.3,1.1,2c3.4,3.4,5.4,8,5.4,13.1    c0,10.3-8.3,18.6-18.6,18.6s-18.6-8.3-18.6-18.6s8.3-18.6,18.6-18.6c2.9,0,5.6,0.7,8,1.8c1.5,0.7,2.8,0.3,3.3,0.2    C17,86.4,17.3,86.3,17.5,86.2z"
        fill="none" stroke="url(#E)" stroke-width="7.964" />
    <mask maskUnits="userSpaceOnUse" x="-25" y="119" width="61.1" height="38.5" id="F">
        <path
            d="M28.1 127c0 3-.6 5.9-1.7 8.6s-2.8 5.2-4.9 7.3-4.6 3.8-7.3 4.9-5.7 1.7-8.6 1.7-5.9-.6-8.6-1.7-5.2-2.8-7.3-4.9-3.8-4.6-4.9-7.3-1.7-5.7-1.7-8.6H-9c0 1.9.4 3.8 1.1 5.6s1.8 3.4 3.2 4.8 3 2.4 4.8 3.2c1.8.7 3.7 1.1 5.6 1.1s3.8-.4 5.6-1.1 3.4-1.8 4.8-3.2 2.4-3 3.2-4.8c.7-1.8 1.1-3.7 1.1-5.6h7.7z"
            fill="#fff" filter="url(#A)" />
    </mask>
    <linearGradient id="G" gradientUnits="userSpaceOnUse" x1="5.503" y1="104.391" x2="5.503" y2="149.522">
        <stop offset="0" stop-color="#faa500" />
        <stop offset="1" stop-color="#ffd600" />
    </linearGradient>
    <path
        d="M28.1,127c0,3-0.6,5.9-1.7,8.6c-1.1,2.7-2.8,5.2-4.9,7.3c-2.1,2.1-4.6,3.8-7.3,4.9c-2.7,1.1-5.7,1.7-8.6,1.7    s-5.9-0.6-8.6-1.7c-2.7-1.1-5.2-2.8-7.3-4.9c-2.1-2.1-3.8-4.6-4.9-7.3c-1.1-2.7-1.7-5.7-1.7-8.6h7.9c0,1.9,0.4,3.8,1.1,5.6    c0.7,1.8,1.8,3.4,3.2,4.8c1.4,1.4,3,2.4,4.8,3.2c1.8,0.7,3.7,1.1,5.6,1.1s3.8-0.4,5.6-1.1c1.8-0.7,3.4-1.8,4.8-3.2    c1.4-1.4,2.4-3,3.2-4.8c0.7-1.8,1.1-3.7,1.1-5.6H28.1z"
        mask="url(#F)" fill="none" stroke="url(#G)" stroke-width="15.929" />
</svg>