<svg xmlns="http://www.w3.org/2000/svg" viewBox="-60.5 75 132 108" xmlns:v="https://vecta.io/nano">
    <defs>
        <filter id="A" filterUnits="userSpaceOnUse" x="-23.4" y="120.8" width="57.9" height="35.2">
            <feColorMatrix values="1 0 0 0 0  0 1 0 0 0  0 0 1 0 0  0 0 0 1 0" />
        </filter>
    </defs>
    <g fill="none" stroke="#252525" stroke-width="8.012">
        <path d="M24.2 103c0 10.3-8.4 18.7-18.7 18.7s-18.7-8.4-18.7-18.7 8.4-18.7 18.7-18.7c2.9 0 5.6.7 8.1 1.8 1 .5 2 1.1 2.9 1.8.8.6 1.6 1.2 2.2 1.9 3.4 3.4 5.5 8.1 5.5 13.2z" />
        <path d="M17.6 86v.6c0 .3 0 .7.1 1.2.1.4.4 1.3 1.1 2 3.4 3.4 5.5 8 5.5 13.2 0 10.3-8.4 18.7-18.7 18.7s-18.7-8.4-18.7-18.7 8.4-18.7 18.7-18.7c2.9 0 5.6.7 8.1 1.8 1.5.7 2.8.3 3.3.2.1-.1.3-.2.6-.3z" />
    </g>
    <mask maskUnits="userSpaceOnUse" x="-23.4" y="120.8" width="57.9" height="35.2" id="B">
        <path
            d="M28.2 127c0 3-.6 5.9-1.7 8.7s-2.8 5.3-4.9 7.4-4.6 3.8-7.4 4.9-5.7 1.7-8.7 1.7-5.9-.6-8.7-1.7-5.3-2.8-7.4-4.9-3.8-4.6-4.9-7.4-1.7-5.7-1.7-8.7h7.9c0 1.9.4 3.9 1.1 5.7s1.8 3.4 3.2 4.8 3 2.5 4.8 3.2 3.7 1.1 5.7 1.1c1.9 0 3.9-.4 5.7-1.1s3.4-1.8 4.8-3.2 2.5-3 3.2-4.8 1.1-3.7 1.1-5.7h7.9z"
            fill="#fff" filter="url(#A)" />
    </mask>
    <path
        d="M28.2 127c0 3-.6 5.9-1.7 8.7s-2.8 5.3-4.9 7.4-4.6 3.8-7.4 4.9-5.7 1.7-8.7 1.7-5.9-.6-8.7-1.7-5.3-2.8-7.4-4.9-3.8-4.6-4.9-7.4-1.7-5.7-1.7-8.7h7.9c0 1.9.4 3.9 1.1 5.7s1.8 3.4 3.2 4.8 3 2.5 4.8 3.2 3.7 1.1 5.7 1.1c1.9 0 3.9-.4 5.7-1.1s3.4-1.8 4.8-3.2 2.5-3 3.2-4.8 1.1-3.7 1.1-5.7h7.9z"
        mask="url(#B)" fill="none" stroke="#252525" stroke-width="12.464" />
    <path
        d="M-51.1 168.5h8.3v1.3c0 2.4-.8 4.3-2.3 5.8s-3.5 2.2-5.9 2.2c-2.6 0-4.7-.8-6.4-2.5s-2.5-3.7-2.5-6.1.8-4.5 2.5-6.1c1.7-1.7 3.7-2.5 6.2-2.5 1.5 0 2.9.3 4.2 1s2.3 1.6 3 2.8l-2.8 1.6c-.4-.7-1-1.2-1.8-1.7-.8-.4-1.7-.6-2.7-.6-1.6 0-2.9.5-3.9 1.6-1 1-1.5 2.3-1.5 3.9s.5 2.9 1.5 3.9 2.4 1.5 4.1 1.5c1.2 0 2.3-.3 3.1-.8.8-.6 1.4-1.3 1.7-2.3h-5v-3zm23.7 8.9h-3.5l-3.3-5.8h-2.5v5.8H-40v-16.6h6.6a5.28 5.28 0 0 1 3.9 1.6 5.28 5.28 0 0 1 1.6 3.9 5.21 5.21 0 0 1-.9 2.9c-.6.9-1.4 1.5-2.3 2l3.7 6.2zm-5.9-13.6h-3.4v4.9h3.4c.6 0 1.1-.2 1.6-.7.4-.5.7-1.1.7-1.8s-.2-1.3-.7-1.7-1-.7-1.6-.7zm22.1 11.4c-1.7 1.7-3.7 2.5-6.1 2.5s-4.4-.8-6.1-2.5-2.5-3.7-2.5-6.1.8-4.4 2.5-6.1 3.7-2.5 6.1-2.5 4.4.8 6.1 2.5 2.5 3.7 2.5 6.1-.8 4.4-2.5 6.1zm-9.9-2.2c1 1 2.3 1.5 3.8 1.5s2.8-.5 3.8-1.5 1.5-2.3 1.5-3.9-.5-2.9-1.5-3.9-2.3-1.5-3.8-1.5-2.8.5-3.8 1.5-1.5 2.3-1.5 3.9c-.1 1.6.5 2.9 1.5 3.9zM8 175.2c-1.7 1.7-3.7 2.5-6.1 2.5s-4.4-.8-6.1-2.5-2.5-3.7-2.5-6.1.8-4.4 2.5-6.1 3.7-2.5 6.1-2.5 4.4.8 6.1 2.5 2.5 3.7 2.5 6.1-.8 4.4-2.5 6.1zm-9.9-2.2c1 1 2.3 1.5 3.8 1.5s2.8-.5 3.8-1.5 1.5-2.3 1.5-3.9-.5-2.9-1.5-3.9-2.3-1.5-3.8-1.5-2.8.5-3.8 1.5-1.5 2.3-1.5 3.9.5 2.9 1.5 3.9zm24.1 4.4h-4.4l-6-17.9h3.8l4.4 13.8 4.4-13.8h3.9l-6.1 17.9zm17.2 0H35l-6-17.9h3.8l4.4 13.8 4.4-13.8h3.9l-6.1 17.9zm11.4-6.9v3.7h7v3.1H47.5v-16.6h10.1v3.1h-6.9v3.5H57v3.1h-6.2zm13 0v3.7h7v3.1H60.5v-16.6h10.1v3.1h-6.9v3.5H70v3.1h-6.2z"
        fill="#252525" />
</svg>