<svg width="23" height="24" viewBox="0 0 23 24" fill="none" xmlns="http://www.w3.org/2000/svg">
<path d="M7.50467 18.6192C6.28865 18.6192 5.30478 19.6142 5.30478 20.8302C5.30478 22.0462 6.28865 23.0411 7.50467 23.0411C8.72069 23.0411 9.71562 22.0462 9.71562 20.8302C9.71562 19.6142 8.72069 18.6192 7.50467 18.6192ZM0.871826 2.03712C0.871826 2.64513 1.36929 3.14259 1.9773 3.14259H3.08277L7.06248 11.5331L5.57009 14.2305C4.76309 15.7118 5.82435 17.5138 7.50467 17.5138H19.6649C20.2729 17.5138 20.7704 17.0163 20.7704 16.4083C20.7704 15.8003 20.2729 15.3028 19.6649 15.3028H7.50467L8.72069 13.0919H16.9565C17.7856 13.0919 18.5152 12.6386 18.8911 11.9532L22.8486 4.77869C22.9418 4.61113 22.9896 4.42214 22.9873 4.23044C22.985 4.03873 22.9327 3.85095 22.8355 3.68567C22.7384 3.52039 22.5998 3.38334 22.4334 3.28809C22.267 3.19284 22.0786 3.14268 21.8869 3.14259H5.52587L4.7852 1.56176C4.69636 1.37306 4.55559 1.21358 4.37939 1.10199C4.20319 0.990394 3.99884 0.931306 3.79028 0.931642H1.9773C1.36929 0.931642 0.871826 1.42911 0.871826 2.03712ZM18.5594 18.6192C17.3434 18.6192 16.3595 19.6142 16.3595 20.8302C16.3595 22.0462 17.3434 23.0411 18.5594 23.0411C19.7754 23.0411 20.7704 22.0462 20.7704 20.8302C20.7704 19.6142 19.7754 18.6192 18.5594 18.6192Z" fill="white"/>
</svg>
