<svg xmlns="http://www.w3.org/2000/svg" width="29" height="23" fill="none" xmlns:v="https://vecta.io/nano">
    <path
        d="M27.391.457h-4.836l2.404 3.607c.152.235-.014.539-.29.539h-2.764c-.456 0-.898-.235-1.147-.622L18.409.457h-2.764l2.404 3.607c.152.235-.014.539-.29.539h-2.764c-.456 0-.898-.235-1.147-.622L11.499.457H8.736l2.404 3.607c.152.235-.014.539-.29.539H8.086c-.456 0-.884-.235-1.147-.622L4.59.457H3.208a2.76 2.76 0 0 0-2.75 2.764L.445 19.803c0 1.52 1.244 2.764 2.764 2.764h22.109c1.52 0 2.764-1.244 2.764-2.764V1.148c0-.387-.304-.691-.691-.691zM13.227 16.003l-1.727 3.8-1.727-3.8-3.8-1.727 3.8-1.727 1.727-3.8 1.727 3.8 3.8 1.727-3.8 1.727zm7.863-4.574l-1.299 2.847-1.299-2.847-2.847-1.299 2.847-1.299 1.299-2.847 1.299 2.847 2.847 1.299-2.847 1.299z"
        fill="#fff" />
</svg>