<svg width="23" height="23" viewBox="0 0 23 23" fill="none" xmlns="http://www.w3.org/2000/svg">
    <path
        d="M20.1198 18.7195C21.2537 17.3552 22.0423 15.738 22.4189 14.0045C22.7956 12.271 22.7492 10.4723 22.2837 8.76053C21.8181 7.04878 20.9472 5.47432 19.7445 4.17035C18.5418 2.86639 17.0427 1.87127 15.3741 1.26919C13.7054 0.667113 11.9163 0.475779 10.1581 0.711378C8.3999 0.946977 6.72429 1.60258 5.27303 2.62272C3.82178 3.64286 2.63757 4.99753 1.82059 6.57213C1.00361 8.14673 0.577888 9.89494 0.579441 11.6689C0.580038 14.2477 1.48879 16.7439 3.14624 18.7195L3.13045 18.7329C3.18571 18.7992 3.24888 18.8561 3.30572 18.9216C3.37678 19.0029 3.45337 19.0795 3.5268 19.1585C3.74787 19.3985 3.97526 19.629 4.2137 19.8454C4.28633 19.9117 4.36134 19.9733 4.43477 20.0364C4.68742 20.2543 4.94718 20.4612 5.21641 20.6538C5.25115 20.6775 5.28273 20.7083 5.31747 20.7328V20.7233C7.16666 22.0246 9.37264 22.723 11.6338 22.723C13.895 22.723 16.1009 22.0246 17.9501 20.7233V20.7328C17.9849 20.7083 18.0157 20.6775 18.0512 20.6538C18.3196 20.4604 18.5802 20.2543 18.8328 20.0364C18.9063 19.9733 18.9813 19.9109 19.0539 19.8454C19.2923 19.6282 19.5197 19.3985 19.7408 19.1585C19.8142 19.0795 19.89 19.0029 19.9619 18.9216C20.0179 18.8561 20.0819 18.7992 20.1371 18.7321L20.1198 18.7195ZM11.633 5.35255C12.3357 5.35255 13.0226 5.56093 13.6069 5.95133C14.1912 6.34173 14.6466 6.89662 14.9155 7.54583C15.1844 8.19505 15.2548 8.90942 15.1177 9.59862C14.9806 10.2878 14.6422 10.9209 14.1453 11.4178C13.6484 11.9147 13.0154 12.2531 12.3262 12.3901C11.6369 12.5272 10.9226 12.4569 10.2734 12.188C9.62415 11.919 9.06925 11.4637 8.67885 10.8794C8.28845 10.2951 8.08008 9.60818 8.08008 8.90548C8.08008 7.96319 8.4544 7.05948 9.12071 6.39318C9.78701 5.72688 10.6907 5.35255 11.633 5.35255V5.35255ZM5.32221 18.7195C5.33591 17.6828 5.75721 16.6932 6.49496 15.9647C7.23272 15.2363 8.22761 14.8276 9.26439 14.827H14.0016C15.0384 14.8276 16.0333 15.2363 16.7711 15.9647C17.5088 16.6932 17.9301 17.6828 17.9438 18.7195C16.2122 20.2799 13.9639 21.1434 11.633 21.1434C9.30208 21.1434 7.0538 20.2799 5.32221 18.7195V18.7195Z"
        fill="white" />
</svg>