<svg width="16" height="19" viewBox="0 0 16 19" fill="none" xmlns="http://www.w3.org/2000/svg">
<path d="M5.26304 2.6466C5.0081 2.6466 4.76359 2.74788 4.58331 2.92815C4.40304 3.10843 4.30176 3.35293 4.30176 3.60788C4.30176 3.86283 4.40304 4.10733 4.58331 4.28761C4.76359 4.46788 5.0081 4.56916 5.26304 4.56916C5.51799 4.56916 5.7625 4.46788 5.94277 4.28761C6.12305 4.10733 6.22433 3.86283 6.22433 3.60788C6.22433 3.35293 6.12305 3.10843 5.94277 2.92815C5.7625 2.74788 5.51799 2.6466 5.26304 2.6466ZM2.54262 2.6466C2.74122 2.08374 3.10952 1.59633 3.59676 1.25158C4.08399 0.906818 4.66617 0.72168 5.26304 0.72168C5.85992 0.72168 6.44209 0.906818 6.92933 1.25158C7.41657 1.59633 7.78487 2.08374 7.98347 2.6466H14.8759C15.1308 2.6466 15.3753 2.74788 15.5556 2.92815C15.7359 3.10843 15.8371 3.35293 15.8371 3.60788C15.8371 3.86283 15.7359 4.10733 15.5556 4.28761C15.3753 4.46788 15.1308 4.56916 14.8759 4.56916H7.98347C7.78487 5.13202 7.41657 5.61943 6.92933 5.96418C6.44209 6.30894 5.85992 6.49408 5.26304 6.49408C4.66617 6.49408 4.08399 6.30894 3.59676 5.96418C3.10952 5.61943 2.74122 5.13202 2.54262 4.56916H1.41792C1.16297 4.56916 0.918463 4.46788 0.738188 4.28761C0.557912 4.10733 0.456635 3.86283 0.456635 3.60788C0.456635 3.35293 0.557912 3.10843 0.738188 2.92815C0.918463 2.74788 1.16297 2.6466 1.41792 2.6466H2.54262ZM11.0307 8.41429C10.7758 8.41429 10.5313 8.51557 10.351 8.69584C10.1707 8.87612 10.0695 9.12062 10.0695 9.37557C10.0695 9.63052 10.1707 9.87502 10.351 10.0553C10.5313 10.2356 10.7758 10.3369 11.0307 10.3369C11.2857 10.3369 11.5302 10.2356 11.7105 10.0553C11.8907 9.87502 11.992 9.63052 11.992 9.37557C11.992 9.12062 11.8907 8.87612 11.7105 8.69584C11.5302 8.51557 11.2857 8.41429 11.0307 8.41429ZM8.31031 8.41429C8.50891 7.85143 8.87721 7.36402 9.36445 7.01927C9.85168 6.67451 10.4339 6.48937 11.0307 6.48937C11.6276 6.48937 12.2098 6.67451 12.697 7.01927C13.1843 7.36402 13.5526 7.85143 13.7512 8.41429H14.8759C15.1308 8.41429 15.3753 8.51557 15.5556 8.69584C15.7359 8.87612 15.8371 9.12062 15.8371 9.37557C15.8371 9.63052 15.7359 9.87502 15.5556 10.0553C15.3753 10.2356 15.1308 10.3369 14.8759 10.3369H13.7512C13.5526 10.8997 13.1843 11.3871 12.697 11.7319C12.2098 12.0766 11.6276 12.2618 11.0307 12.2618C10.4339 12.2618 9.85168 12.0766 9.36445 11.7319C8.87721 11.3871 8.50891 10.8997 8.31031 10.3369H1.41792C1.16297 10.3369 0.918463 10.2356 0.738188 10.0553C0.557912 9.87502 0.456635 9.63052 0.456635 9.37557C0.456635 9.12062 0.557912 8.87612 0.738188 8.69584C0.918463 8.51557 1.16297 8.41429 1.41792 8.41429H8.31031ZM5.26304 14.182C5.0081 14.182 4.76359 14.2833 4.58331 14.4635C4.40304 14.6438 4.30176 14.8883 4.30176 15.1433C4.30176 15.3982 4.40304 15.6427 4.58331 15.823C4.76359 16.0033 5.0081 16.1045 5.26304 16.1045C5.51799 16.1045 5.7625 16.0033 5.94277 15.823C6.12305 15.6427 6.22433 15.3982 6.22433 15.1433C6.22433 14.8883 6.12305 14.6438 5.94277 14.4635C5.7625 14.2833 5.51799 14.182 5.26304 14.182ZM2.54262 14.182C2.74122 13.6191 3.10952 13.1317 3.59676 12.787C4.08399 12.4422 4.66617 12.2571 5.26304 12.2571C5.85992 12.2571 6.44209 12.4422 6.92933 12.787C7.41657 13.1317 7.78487 13.6191 7.98347 14.182H14.8759C15.1308 14.182 15.3753 14.2833 15.5556 14.4635C15.7359 14.6438 15.8371 14.8883 15.8371 15.1433C15.8371 15.3982 15.7359 15.6427 15.5556 15.823C15.3753 16.0033 15.1308 16.1045 14.8759 16.1045H7.98347C7.78487 16.6674 7.41657 17.1548 6.92933 17.4996C6.44209 17.8443 5.85992 18.0295 5.26304 18.0295C4.66617 18.0295 4.08399 17.8443 3.59676 17.4996C3.10952 17.1548 2.74122 16.6674 2.54262 16.1045H1.41792C1.16297 16.1045 0.918463 16.0033 0.738188 15.823C0.557912 15.6427 0.456635 15.3982 0.456635 15.1433C0.456635 14.8883 0.557912 14.6438 0.738188 14.4635C0.918463 14.2833 1.16297 14.182 1.41792 14.182H2.54262Z" fill="#FAA500"/>
</svg>
