<svg width="26" height="23" viewBox="0 0 26 23" fill="none" xmlns="http://www.w3.org/2000/svg">
    <path fill-rule="evenodd" clip-rule="evenodd"
        d="M7.49677 0.613551C6.80991 0.613551 6.17522 0.979989 5.83178 1.57483L0.559319 10.707C0.215886 11.3019 0.215886 12.0347 0.559319 12.6296L5.83178 21.7617C6.17522 22.3566 6.80991 22.723 7.49677 22.723H18.0417C18.7286 22.723 19.3633 22.3566 19.7067 21.7617L24.9792 12.6296C25.3226 12.0347 25.3226 11.3019 24.9792 10.707L19.7067 1.57483C19.3633 0.979989 18.7286 0.613551 18.0417 0.61355L7.49677 0.613551ZM13.0919 15.321C14.931 15.321 16.4219 13.8301 16.4219 11.991C16.4219 10.1519 14.931 8.661 13.0919 8.661C11.2528 8.661 9.76194 10.1519 9.76194 11.991C9.76194 13.8301 11.2528 15.321 13.0919 15.321Z"
        fill="white" />
</svg>